#N canvas 350 52 1401 916 12;
#X obj 91 628 cnv 15 480 220 empty empty Send_OSC 14 14 2 14 #ffe3c6 #0400ff 0;
#X obj 101 757 list prepend send, f 10;
#X obj 101 807 list trim;
#X msg 304 792 disconnect, f 22;
#X msg 304 768 connect 127.0.0.1 1415;
#X obj 304 747 loadbang;
#X obj 264 826 netsend -u -b;
#X obj 579 627 cnv 15 320 180 empty empty Receive_OSC 14 14 2 14 #fcfcc4 #0400fc 0;
#X obj 677 735 oscparse;
#X obj 677 759 list trim;
#X obj 677 710 netreceive -u -b 5000;
#X msg 677 687 listen 1123;
#X msg 603 684 listen 0;
#X obj 677 663 loadbang;
#N canvas 124 167 1052 634 osc_decode 1;
#X floatatom 307 173 5 0 0 0 - - - 0;
#X floatatom 374 173 5 0 0 0 - - - 0;
#X text 344 173 vel;
#X obj 311 215 pack f f;
#X obj 307 143 unpack f f;
#X obj 305 49 inlet;
#X text 383 50 osc_received_from_python;
#X obj 311 258 outlet;
#N canvas 788 774 450 278 (subpatch) 0;
#X array array1 25 float 3;
#A 0 0 0 0 0 0 0 0 0 0 0 0 0 0 0 0 0 0 0 0 0 0 0 0 0 0;
#X coords 0 1 25 -1 200 140 1 0 0;
#X restore 229 300 graph;
#X obj 256 110 print;
#X obj 305 78 route embedding, f 69;
#X connect 3 0 7 0;
#X connect 4 0 0 0;
#X connect 4 1 1 0;
#X connect 5 0 10 0;
#X connect 10 0 9 0;
#X coords 0 634 1 633 85 16 0;
#X restore 677 782 pd osc_decode;
#X f 26;
#X obj 209 180 gcanvas 300 300;
#X msg 136 160 reset;
#X obj 211 11 loadbang;
#X obj 210 36 t b b b b;
#X msg 356 598 move 1 \$1 \$2 4 4;
#X floatatom 209 486 5 0 0 0 - - - 0;
#X floatatom 355 488 5 0 0 0 - - - 0;
#X obj 353 534 pack f f;
#X obj 353 511 - 2;
#X obj 406 489 - 2;
#X msg 250 82 rect black 125 150 4 4;
#X msg 230 104 rect black 190 3 4 4;
#X msg 209 125 rect black 10 100 4 4;
#X msg 270 60 rect red 105 150 4 4;
#X text 20 509 ix \, x \, y \, width \, height;
#X obj 101 722 oscformat /coord, f 10;
#X obj 439 564 print;
#X obj 932 778 print;
#X connect 1 0 2 0;
#X connect 2 0 6 0;
#X connect 3 0 6 0;
#X connect 4 0 6 0;
#X connect 5 0 4 0;
#X connect 8 0 9 0;
#X connect 8 0 32 0;
#X connect 9 0 14 0;
#X connect 10 0 8 0;
#X connect 11 0 10 0;
#X connect 12 0 10 0;
#X connect 13 0 11 0;
#X connect 15 0 20 0;
#X connect 15 0 23 0;
#X connect 15 1 21 0;
#X connect 15 1 24 0;
#X connect 16 0 15 0;
#X connect 17 0 18 0;
#X connect 18 0 27 0;
#X connect 18 1 26 0;
#X connect 18 2 25 0;
#X connect 18 3 28 0;
#X connect 19 0 15 0;
#X connect 22 0 19 0;
#X connect 22 0 31 0;
#X connect 22 0 30 0;
#X connect 23 0 22 0;
#X connect 24 0 22 1;
#X connect 25 0 15 0;
#X connect 26 0 15 0;
#X connect 27 0 15 0;
#X connect 28 0 15 0;
#X connect 30 0 1 0;
#X coords 0 0 1 1 85 60 0;
