#N canvas 141 42 967 690 12;
#X obj 52 181 gcanvas 300 300;
#X msg 352 107 reset;
#X obj 41 12 loadbang;
#X obj 40 37 t b b b b;
#X msg 478 149 move 1 \$1 \$2 4 4;
#X floatatom 81 490 5 0 0 0 - - - 0;
#X floatatom 207 496 5 0 0 0 - - - 0;
#X obj 276 524 pack f f;
#X obj 265 499 - 2;
#X obj 316 497 - 2;
#X msg 80 92 rect black 125 150 4 4;
#X msg 62 119 rect black 190 3 4 4;
#X msg 16 140 rect black 10 100 4 4;
#X msg 98 61 rect red 105 150 4 4;
#X connect 0 0 5 0;
#X connect 0 0 8 0;
#X connect 0 1 6 0;
#X connect 0 1 9 0;
#X connect 1 0 0 0;
#X connect 2 0 3 0;
#X connect 3 0 12 0;
#X connect 3 1 11 0;
#X connect 3 2 10 0;
#X connect 3 3 13 0;
#X connect 4 0 0 0;
#X connect 7 0 4 0;
#X connect 8 0 7 0;
#X connect 9 0 7 1;
#X connect 10 0 0 0;
#X connect 11 0 0 0;
#X connect 12 0 0 0;
#X connect 13 0 0 0;
